# xmcd
#
# Track frame offsets:
#  150
#  14678
#  34030
#  48880
#  73108
#  93478
#  110978
#  127598
#  154235
#  170153
#  190373
#  202245
#  212823
#  225035
#  236538
#  250558
#  262698
#  274883
#
# Disc length: 3804 seconds
#
# Revision: 2
# Processed by: cddbd v1.5.1PL2 Copyright (c) Steve Scherf et al.
# Submitted via: Collectorz.com_Music_Collector 6.10
#
DISCID=fb0eda12
DTITLE=Lightnin' Hopkins - Nothin' But The Blues
DYEAR=1992
DGENRE=Blues
TTITLE0=Blues In The Bottle
TTITLE1=Catfish Blues
TTITLE2=Jailhouse Blues
TTITLE3=Happy Blues For John Glenn
TTITLE4=Dc-7
TTITLE5=Death Bells
TTITLE6=Coffee Blues
TTITLE7=I Heard My Children Crying
TTITLE8=King - Joe Josea - Rock Me Baby
TTITLE9=One Kind Favor I Ask Of You
TTITLE10=Don't Think 'cause You're Pretty
TTITLE11=Nothin' But The Blues
TTITLE12=Lonesome In Your Home
TTITLE13=Highway Blues
TTITLE14=The War Is Over
TTITLE15=Shotgun
TTITLE16=Mistreated Blues
TTITLE17=Down Baby
EXTD=
EXTT0=
EXTT1=
EXTT2=
EXTT3=
EXTT4=
EXTT5=
EXTT6=
EXTT7=
EXTT8=
EXTT9=
EXTT10=
EXTT11=
EXTT12=
EXTT13=
EXTT14=
EXTT15=
EXTT16=
EXTT17=
PLAYORDER=
